<?xml version="1.0" encoding="UTF-8"?>
<!-- Generator: Adobe Illustrator 28.0.0, SVG Export Plug-In . SVG Version: 6.00 Build 0)  -->
<svg version="1.1" id="Layer_1" xmlns="http://www.w3.org/2000/svg" xmlns:xlink="http://www.w3.org/1999/xlink" x="0px" y="0px" viewBox="0 0 189.2 34.8" style="enable-background:new 0 0 189.2 34.8;" xml:space="preserve">
<style type="text/css">
	.st0{fill:#FFFFFF;}
</style>
<g>
	<g>
		<circle class="st0" cx="2.1" cy="32.7" r="2.1"/>
		<circle class="st0" cx="2.1" cy="26.6" r="2.1"/>
		<circle class="st0" cx="2.1" cy="20.6" r="2.1"/>
		<circle class="st0" cx="2.1" cy="14.5" r="2.1"/>
		<circle class="st0" cx="2.1" cy="8.5" r="2.1"/>
		<circle class="st0" cx="2.1" cy="2.4" r="2.1"/>
	</g>
	<g>
		<circle class="st0" cx="28.3" cy="32.7" r="2.1"/>
		<circle class="st0" cx="23" cy="32.6" r="2.1"/>
		<circle class="st0" cx="33.7" cy="32.7" r="2.1"/>
	</g>
	<g>
		<circle class="st0" cx="28.3" cy="2.5" r="2.1"/>
		<circle class="st0" cx="23" cy="2.4" r="2.1"/>
		<circle class="st0" cx="33.7" cy="2.5" r="2.1"/>
	</g>
	<circle class="st0" cx="18.6" cy="29.1" r="2.1"/>
	<circle class="st0" cx="18.6" cy="23" r="2.1"/>
	<circle class="st0" cx="18.6" cy="17.5" r="2.1"/>
	<circle class="st0" cx="18.6" cy="12" r="2.1"/>
	<circle class="st0" cx="18.6" cy="6.5" r="2.1"/>
	<g>
		<circle class="st0" cx="70.6" cy="32.7" r="2.1"/>
		<circle class="st0" cx="51.5" cy="27.4" r="2.1"/>
		<circle class="st0" cx="51.5" cy="22.1" r="2.1"/>
		<circle class="st0" cx="65.3" cy="30.8" r="2.1"/>
		<circle class="st0" cx="60" cy="32.7" r="2.1"/>
		<circle class="st0" cx="54.3" cy="32.2" r="2.1"/>
		<circle class="st0" cx="51.5" cy="16.8" r="2.1"/>
		<circle class="st0" cx="51.5" cy="11.5" r="2.1"/>
		<circle class="st0" cx="70.6" cy="27.4" r="2.1"/>
		<circle class="st0" cx="70.6" cy="22.1" r="2.1"/>
		<circle class="st0" cx="70.6" cy="16.8" r="2.1"/>
		<circle class="st0" cx="70.6" cy="11.5" r="2.1"/>
	</g>
	<g>
		<circle class="st0" cx="90.8" cy="32.7" r="2.1"/>
		<circle class="st0" cx="95.9" cy="32.7" r="2.1"/>
		<circle class="st0" cx="101" cy="32.7" r="2.1"/>
		<circle class="st0" cx="85.7" cy="32.7" r="2.1"/>
		<circle class="st0" cx="90.8" cy="17.4" r="2.1"/>
		<circle class="st0" cx="95.9" cy="17.4" r="2.1"/>
		<circle class="st0" cx="85.8" cy="17.4" r="2.1"/>
		<circle class="st0" cx="80.7" cy="32.7" r="2.1"/>
		<circle class="st0" cx="80.7" cy="27.6" r="2.1"/>
		<circle class="st0" cx="80.7" cy="22.5" r="2.1"/>
		<circle class="st0" cx="80.7" cy="17.4" r="2.1"/>
		<circle class="st0" cx="80.7" cy="12.3" r="2.1"/>
		<circle class="st0" cx="80.7" cy="7.2" r="2.1"/>
		<circle class="st0" cx="90.8" cy="2.1" r="2.1"/>
		<circle class="st0" cx="95.9" cy="2.1" r="2.1"/>
		<circle class="st0" cx="101" cy="2.1" r="2.1"/>
		<circle class="st0" cx="85.7" cy="2.1" r="2.1"/>
		<circle class="st0" cx="80.7" cy="2.1" r="2.1"/>
	</g>
	<g>
		<circle class="st0" cx="120.6" cy="15.3" r="2.1"/>
		<circle class="st0" cx="125.9" cy="15.3" r="2.1"/>
		<circle class="st0" cx="116.1" cy="17.6" r="2.1"/>
		<circle class="st0" cx="130.6" cy="17.6" r="2.1"/>
		<circle class="st0" cx="111" cy="32.7" r="2.1"/>
		<circle class="st0" cx="111" cy="27.6" r="2.1"/>
		<circle class="st0" cx="111" cy="22.5" r="2.1"/>
		<circle class="st0" cx="111" cy="17.4" r="2.1"/>
		<circle class="st0" cx="111" cy="12.3" r="2.1"/>
		<circle class="st0" cx="111" cy="32.7" r="2.1"/>
		<circle class="st0" cx="111" cy="27.6" r="2.1"/>
		<circle class="st0" cx="111" cy="22.5" r="2.1"/>
		<circle class="st0" cx="111" cy="17.4" r="2.1"/>
		<circle class="st0" cx="111" cy="12.3" r="2.1"/>
	</g>
	<g>
		<circle class="st0" cx="142.7" cy="32.7" r="2.1"/>
		<circle class="st0" cx="142.7" cy="21.2" r="2.1"/>
		<circle class="st0" cx="147.8" cy="21.2" r="2.1"/>
		<circle class="st0" cx="152.9" cy="21.2" r="2.1"/>
		<circle class="st0" cx="154.4" cy="11.2" r="2.1"/>
		<circle class="st0" cx="148.8" cy="11.2" r="2.1"/>
		<circle class="st0" cx="143.3" cy="11.2" r="2.1"/>
		<circle class="st0" cx="147.8" cy="32.7" r="2.1"/>
		<circle class="st0" cx="152.9" cy="32.7" r="2.1"/>
		<circle class="st0" cx="138" cy="29.7" r="2.1"/>
		<circle class="st0" cx="138" cy="24.2" r="2.1"/>
		<circle class="st0" cx="158.2" cy="32.7" r="2.1"/>
		<circle class="st0" cx="158.2" cy="26.9" r="2.1"/>
		<circle class="st0" cx="158.2" cy="21.2" r="2.1"/>
		<circle class="st0" cx="158.2" cy="15.5" r="2.1"/>
	</g>
	<g>
		<circle class="st0" cx="170.1" cy="32.7" r="2.1"/>
		<circle class="st0" cx="170.1" cy="2.1" r="2.1"/>
	</g>
	<g>
		<circle class="st0" cx="174.4" cy="29" r="2.1"/>
		<circle class="st0" cx="174.4" cy="5.8" r="2.1"/>
	</g>
	<g>
		<circle class="st0" cx="178.6" cy="25.4" r="2.1"/>
		<circle class="st0" cx="178.6" cy="9.4" r="2.1"/>
	</g>
	<g>
		<circle class="st0" cx="182.9" cy="21.7" r="2.1"/>
		<circle class="st0" cx="182.9" cy="13.1" r="2.1"/>
	</g>
	<circle class="st0" cx="187.1" cy="17.4" r="2.1"/>
	<circle class="st0" cx="28.3" cy="22.1" r="2.1"/>
	<circle class="st0" cx="33.1" cy="25.6" r="2.1"/>
	<circle class="st0" cx="42.7" cy="32.7" r="2.1"/>
	<circle class="st0" cx="37.9" cy="23" r="2.1"/>
	<circle class="st0" cx="37.9" cy="17.5" r="2.1"/>
	<circle class="st0" cx="37.9" cy="12" r="2.1"/>
	<circle class="st0" cx="37.9" cy="6.5" r="2.1"/>
	<circle class="st0" cx="37.9" cy="29.1" r="2.1"/>
	<g>
		<circle class="st0" cx="18.7" cy="23" r="2.1"/>
		<circle class="st0" cx="18.7" cy="17.5" r="2.1"/>
		<circle class="st0" cx="18.7" cy="12" r="2.1"/>
		<circle class="st0" cx="18.7" cy="6.5" r="2.1"/>
		<circle class="st0" cx="18.7" cy="29.1" r="2.1"/>
	</g>
</g>
</svg>