<svg id="Group_221" data-name="Group 221" xmlns="http://www.w3.org/2000/svg" width="197.208" height="29.999" viewBox="0 0 197.208 29.999">
  <g id="Group_218" data-name="Group 218" transform="translate(0 0.054)">
    <g id="Group_217" data-name="Group 217">
      <path id="Path_63" data-name="Path 63" d="M-294.329,297.3a7.374,7.374,0,0,0-7.932,6.77A7.373,7.373,0,0,0-295.492,312a7.374,7.374,0,0,0,7.933-6.769A7.375,7.375,0,0,0-294.329,297.3Zm-.81,10.239a2.9,2.9,0,0,1-2.659-3.116,2.9,2.9,0,0,1,3.116-2.66,2.9,2.9,0,0,1,2.66,3.117A2.9,2.9,0,0,1-295.139,307.534Z" transform="translate(309.205 -282.075)" fill="#9558b2"/>
      <circle id="Ellipse_33" data-name="Ellipse 33" cx="2.897" cy="2.897" r="2.897" transform="translate(0 11.226)" fill="#cb3c33"/>
      <circle id="Ellipse_34" data-name="Ellipse 34" cx="2.897" cy="2.897" r="2.897" transform="translate(44.611 11.226)" fill="#cb3c33"/>
      <g id="Group_216" data-name="Group 216" transform="translate(20.926)">
        <g id="Group_215" data-name="Group 215">
          <path id="Path_64" data-name="Path 64" d="M-277.07,282.1a10.534,10.534,0,0,0-11.187,9.838,10.533,10.533,0,0,0,9.838,11.187,10.535,10.535,0,0,0,11.187-9.838A10.535,10.535,0,0,0-277.07,282.1Zm4.844,10.867a5.53,5.53,0,0,1-5.873,5.165,5.53,5.53,0,0,1-5.165-5.873,5.53,5.53,0,0,1,5.873-5.165A5.529,5.529,0,0,1-272.226,292.964Z" transform="translate(288.279 -282.075)" fill="#4063d8"/>
        </g>
      </g>
      <circle id="Ellipse_35" data-name="Ellipse 35" cx="5.53" cy="5.53" r="5.53" transform="translate(6.713 1.574)" fill="#3f982e"/>
    </g>
  </g>
  <g id="Group_220" data-name="Group 220" transform="translate(52.856)">
    <g id="Group_219" data-name="Group 219">
      <path id="Path_65" data-name="Path 65" d="M-244.11,283.463a4.957,4.957,0,0,1,1.988-.273,5.708,5.708,0,0,1,1.988.273v20.343c0,5.3-3.04,7.834-7.522,7.834a15.3,15.3,0,0,1-5.69-1.169,4.005,4.005,0,0,1,1.052-3,11.716,11.716,0,0,0,3.781.7c2.494,0,4.4-1.052,4.4-4.248Z" transform="translate(253.349 -282.021)" fill="#000"/>
      <path id="Path_66" data-name="Path 66" d="M-234.445,291.023a5.6,5.6,0,0,1,1.949-.272,5.333,5.333,0,0,1,1.948.272v14.03c0,2.183,1.13,3.43,3.624,3.43a5.293,5.293,0,0,0,4.4-2.494V291.023a5.87,5.87,0,0,1,1.948-.272,5.093,5.093,0,0,1,1.949.272v19.954a5.076,5.076,0,0,1-1.949.273,5.851,5.851,0,0,1-1.948-.273v-1.792a7.608,7.608,0,0,1-5.885,2.455c-3.9,0-6.041-2.377-6.041-5.885Z" transform="translate(253.349 -282.021)" fill="#000"/>
      <path id="Path_67" data-name="Path 67" d="M-208.919,310.977a5.579,5.579,0,0,1-1.949.273,5.066,5.066,0,0,1-1.948-.273V282.293a5.083,5.083,0,0,1,1.948-.272,5.6,5.6,0,0,1,1.949.272Z" transform="translate(253.349 -282.021)" fill="#000"/>
      <path id="Path_68" data-name="Path 68" d="M-199.059,286.814a6.109,6.109,0,0,1-2.027.273,5.56,5.56,0,0,1-2.026-.273v-3.663a5.56,5.56,0,0,1,2.026-.273,6.109,6.109,0,0,1,2.027.273Zm-.078,24.163a5.586,5.586,0,0,1-1.949.273,5.076,5.076,0,0,1-1.949-.273V291.023a5.093,5.093,0,0,1,1.949-.272,5.6,5.6,0,0,1,1.949.272Z" transform="translate(253.349 -282.021)" fill="#000"/>
      <path id="Path_69" data-name="Path 69" d="M-186.277,290.361c5.651,0,7.444,2.533,7.444,7.561v13.055a3.064,3.064,0,0,1-1.52.273,3.991,3.991,0,0,1-1.559-.273l-.585-2.494c-1.013,2.066-3.156,3.157-6.118,3.157-3.663,0-6.041-2.143-6.041-6.508,0-4.249,2.611-6.119,7.483-6.119a41.745,41.745,0,0,1,4.443.234V297.8c0-2.65-1.014-4.17-4.014-4.17a16.234,16.234,0,0,0-5.222.974,3.065,3.065,0,0,1-.9-1.169,3.369,3.369,0,0,1-.234-1.637A16.923,16.923,0,0,1-186.277,290.361Zm-.389,11.3c-2.612,0-3.976,1.013-3.976,3.469,0,2.533,1.286,3.507,3.391,3.507,3.079,0,4.521-2.611,4.521-5.378V301.9C-183.627,301.819-185.186,301.663-186.666,301.663Z" transform="translate(253.349 -282.021)" fill="#000"/>
      <path id="Path_70" data-name="Path 70" d="M-157.243,283.463a5.984,5.984,0,0,1,1.988-.273,5.984,5.984,0,0,1,1.988.273v27.514a5.586,5.586,0,0,1-1.949.273,5.077,5.077,0,0,1-2.027-.273V298.584h-11.692v12.393a5.977,5.977,0,0,1-1.988.273,5.187,5.187,0,0,1-1.987-.273V283.463a5.586,5.586,0,0,1,1.949-.273,6.1,6.1,0,0,1,2.026.273v11.692h11.692Z" transform="translate(253.349 -282.021)" fill="#000"/>
      <path id="Path_71" data-name="Path 71" d="M-147.345,291.023a5.6,5.6,0,0,1,1.948-.272,5.345,5.345,0,0,1,1.95.272v14.03c0,2.183,1.13,3.43,3.624,3.43a5.291,5.291,0,0,0,4.4-2.494V291.023a5.873,5.873,0,0,1,1.949-.272,5.089,5.089,0,0,1,1.948.272v19.954a5.073,5.073,0,0,1-1.948.273,5.854,5.854,0,0,1-1.949-.273v-1.792a7.609,7.609,0,0,1-5.886,2.455c-3.9,0-6.04-2.377-6.04-5.885Z" transform="translate(253.349 -282.021)" fill="#000"/>
      <path id="Path_72" data-name="Path 72" d="M-121.936,292.894c1.091-1.6,2.845-2.533,5.612-2.533,4.443,0,7.327,2.689,7.327,10.639s-2.884,10.64-7.327,10.64c-2.767,0-4.521-.935-5.612-2.533v1.87a5.709,5.709,0,0,1-1.988.273,5.2,5.2,0,0,1-1.909-.273V282.293a5.213,5.213,0,0,1,1.909-.272,5.728,5.728,0,0,1,1.988.272Zm4.248.663c-2.728,0-4.248,2.26-4.248,4.91v4.989c0,2.689,1.52,4.988,4.248,4.988,3.118,0,4.677-1.637,4.677-7.444S-114.57,293.557-117.688,293.557Z" transform="translate(253.349 -282.021)" fill="#000"/>
    </g>
  </g>
</svg>